Coordinates
version=1
nRows=28
nColumns=23
inDegrees=yes

Units are S.I. units (second, meters, Newtons, ...)
If the header above contains a line with 'inDegrees', this indicates whether rotational values are in degrees (yes) or radians (no).

endheader
time	pelvis_tilt	pelvis_list	pelvis_rotation	pelvis_tx	pelvis_ty	pelvis_tz	hip_flexion_r	hip_adduction_r	hip_rotation_r	knee_angle_r	knee_angle_r_beta	ankle_angle_r	subtalar_angle_r	mtp_angle_r	hip_flexion_l	hip_adduction_l	hip_rotation_l	knee_angle_l	knee_angle_l_beta	ankle_angle_l	subtalar_angle_l	mtp_angle_l
     14.11333333	      0.60340595	     -0.58619195	     -0.40756764	      2.27331585	      1.03403232	      1.01585118	    -11.86028586	      2.89750394	      0.77743538	     26.05135071	      0.45468184	      1.92002191	     -7.10202321	      0.00000000	     27.57211403	     -2.59990566	     -0.05882491	     46.83427960	      0.81741238	      8.16111640	    -21.03787059	      0.00000000
     14.12000000	      1.13897096	      0.63496320	     -0.31441912	      2.27507918	      1.03909436	      1.01566657	    -13.72805118	      1.38099937	     -0.26447818	     24.99013433	      0.43616012	     -0.58141721	     -6.40273406	      0.00000000	     26.57288711	     -1.49740307	     -1.53042521	     43.40692031	      0.75759368	      8.20474225	    -19.63509555	      0.00000000
     14.12666667	      0.99892465	      1.18113589	     -0.12135662	      2.27630376	      1.04295116	      1.01470655	    -14.63670863	      0.59881660	     -1.19244945	     24.27334956	      0.42364987	     -3.26482755	     -5.78319505	      0.00000000	     26.47530857	     -0.86001558	     -2.35683559	     40.30294160	      0.70341903	      8.27109196	    -18.19773519	      0.00000000
     14.13333333	      0.87671645	      1.64103725	      0.09937286	      2.27749927	      1.04662835	      1.01353748	    -15.46494556	     -0.08760989	     -2.13361909	     23.70383127	      0.41370990	     -5.93915850	     -5.16936218	      0.00000000	     26.30628362	     -0.20466814	     -2.95998484	     37.21586754	      0.64953942	      8.33981097	    -16.52774090	      0.00000000
     14.14000000	      0.75936684	      2.03514173	      0.37609286	      2.27862418	      1.05003826	      1.01211913	    -16.20283937	     -0.68649056	     -3.05884653	     23.29861395	      0.40663752	     -8.50153211	     -4.65902639	      0.00000000	     26.10258445	      0.49987208	     -3.26087462	     34.20263980	      0.59694868	      8.36840929	    -14.65423786	      0.00000000
     14.14666667	      0.24660443	      2.19753743	      0.73826155	      2.27973764	      1.05268035	      1.01030292	    -16.37802658	     -1.02022728	     -3.86150184	     23.12766950	      0.40365398	    -10.99570339	     -4.36570189	      0.00000000	     26.34167729	      1.12124341	     -3.06881358	     31.36838235	      0.54748155	      8.33197782	    -12.83506447	      0.00000000
     14.15333333	      0.57073802	      2.55607416	      0.95886928	      2.28082219	      1.05598079	      1.00880077	    -17.40793329	     -1.61006555	     -4.79885708	     23.01936572	      0.40176372	    -13.27631557	     -3.73515760	      0.00000000	     25.56220795	      1.85979269	     -3.02675869	     28.54424128	      0.49819099	      8.41940486	    -10.63502450	      0.00000000
     14.16000000	      0.52397135	      2.72377138	      1.21238021	      2.28186196	      1.05847230	      1.00711198	    -17.87723529	     -1.98483169	     -5.53239450	     23.19369605	      0.40480636	    -15.41749842	     -3.45564375	      0.00000000	     25.21836300	      2.47428795	     -2.60062292	     25.98464639	      0.45351763	      8.44705718	     -8.59140525	      0.00000000
     14.16666667	      0.14340134	      2.71096812	      1.47134884	      2.28291273	      1.06019693	      1.00532868	    -17.83416381	     -2.17336215	     -6.06544239	     23.62797895	      0.41238603	    -17.38985755	     -3.41738329	      0.00000000	     25.27926024	      2.93173865	     -1.89692445	     23.73552922	      0.41426313	      8.40698840	     -6.79671987	      0.00000000
     14.17333333	      0.51986237	      2.93197340	      1.62718635	      2.28383139	      1.06228118	      1.00391891	    -18.51350002	     -2.63843555	     -6.75258343	     24.25676721	      0.42336045	    -18.94652237	     -3.19499178	      0.00000000	     24.48405111	      3.49292859	     -1.48531934	     21.67107438	      0.37823160	      8.53869328	     -4.62192569	      0.00000000
     14.18000000	      0.35629556	      2.94938795	      1.81771304	      2.28474118	      1.06329694	      1.00242672	    -18.43370199	     -2.87544840	     -7.15646453	     25.19492354	      0.43973437	    -20.33384287	     -3.47209331	      0.00000000	     24.36073150	      3.87914157	     -0.80081014	     20.02052802	      0.34942413	      8.58689514	     -2.98693031	      0.00000000
     14.18666667	      0.65254066	      3.12976428	      1.81787976	      2.28560377	      1.06433370	      1.00135309	    -18.72296406	     -3.33973124	     -7.50277580	     26.36921277	      0.46022958	    -21.32481668	     -3.65838907	      0.00000000	     23.76989079	      4.24996587	     -0.63608804	     18.69789076	      0.32633976	      8.78828751	     -1.12376335	      0.00000000
     14.19333333	      0.67624571	      3.22308294	      1.94803247	      2.28637729	      1.06450022	      1.00023251	    -18.58587413	     -3.65500725	     -7.75780718	     27.80611137	      0.48530820	    -22.04820542	     -4.29914385	      0.00000000	     23.55242324	      4.59080027	     -0.20922572	     17.77074221	      0.31015796	      8.94590967	      0.12304922	      0.00000000
     14.20000000	      0.83264363	      3.21086889	      2.05401770	      2.28687772	      1.06428458	      0.99920919	    -18.44929965	     -3.86553924	     -7.92154071	     29.46305978	      0.51422740	    -22.44316127	     -4.94837577	      0.00000000	     23.26330442	      4.78497424	      0.18713103	     17.21408051	      0.30044238	      9.18074819	      1.03182392	      0.00000000
     14.20666667	      1.14092450	      3.66957777	      1.65486256	      2.28785676	      1.06374368	      0.99911917	    -18.33178113	     -4.69347372	     -7.67913879	     31.40857683	      0.54818308	    -22.41435007	     -5.90814610	      0.00000000	     22.78291407	      5.10575734	     -0.76089402	     16.92304514	      0.29536286	      9.46843614	      2.63854911	      0.00000000
     14.21333333	      1.45879383	      3.72070321	      1.83521772	      2.28823123	      1.06261825	      0.99832944	    -18.19915465	     -4.90282337	     -7.81197115	     33.38895236	      0.58274715	    -22.23575627	     -6.87941128	      0.00000000	     22.35942022	      5.32440720	     -0.49381833	     16.91973443	      0.29530507	      9.65316694	      3.06488032	      0.00000000
     14.22000000	      1.66210323	      4.24111645	      1.31286374	      2.28910493	      1.06082622	      0.99868082	    -17.72672086	     -5.77508632	     -7.24020587	     35.72441978	      0.62350875	    -21.57483411	     -8.32091570	      0.00000000	     22.04004533	      5.64009071	     -1.60811507	     17.16190895	      0.29953182	      9.74244331	      3.69446244	      0.00000000
     14.22666667	      1.98662403	      4.55520505	      1.12149921	      2.28967839	      1.05863862	      0.99872591	    -17.37957233	     -6.30026217	     -6.90007600	     38.04239997	      0.66396513	    -20.79540637	     -9.78233837	      0.00000000	     21.60839301	      5.88900824	     -2.18087845	     17.61565310	      0.30745115	      9.72613874	      3.86009422	      0.00000000
     14.23333333	      2.46087295	      4.84899322	      1.22069101	      2.29011989	      1.05602417	      0.99853225	    -17.23375212	     -6.69977402	     -6.86137937	     40.32560008	      0.70381449	    -19.81907291	    -11.26470457	      0.00000000	     21.05049364	      6.22258176	     -2.40904191	     18.33019747	      0.31992230	      9.59261526	      3.64998537	      0.00000000
     14.24000000	      2.69405134	      5.24083436	      0.75949540	      2.29064653	      1.05296196	      0.99901165	    -16.58603437	     -7.33505412	     -6.13617723	     42.81642405	      0.74728757	    -18.69569399	    -12.92949493	      0.00000000	     20.61226081	      6.47397825	     -3.14001826	     18.90803531	      0.33000747	      9.15574681	      3.11838273	      0.00000000
     14.24666667	      3.20248114	      5.55502492	      0.86529764	      2.29090852	      1.04962078	      0.99888941	    -16.37953244	     -7.72356266	     -6.05852424	     45.13928748	      0.78782919	    -17.47052955	    -14.50960330	      0.00000000	     19.99415279	      6.83077337	     -3.33122785	     19.88027266	      0.34697621	      8.73251064	      2.54180323	      0.00000000
     14.25333333	      3.39105919	      5.98416728	      0.55864785	      2.29123723	      1.04580959	      0.99919355	    -15.62383701	     -8.33384024	     -5.45691379	     47.60823711	      0.83092049	    -16.21539359	    -16.22571092	      0.00000000	     19.58224164	      7.26789095	     -3.55354938	     20.66666216	      0.36070130	      7.96047113	      1.11560586	      0.00000000
     14.26000000	      3.57647013	      6.34117718	      0.57294412	      2.29125750	      1.04167467	      0.99900307	    -14.90106655	     -8.79924310	     -5.18886856	     49.99585805	      0.87259234	    -14.90423883	    -17.83731144	      0.00000000	     19.26786033	      7.76766978	     -3.37808199	     21.74258783	      0.37947975	      7.22133694	     -0.50014504	      0.00000000
     14.26666667	      3.70670767	      6.74461158	      0.75190076	      2.29108086	      1.03725679	      0.99855332	    -14.12203880	     -9.28575386	     -5.09107327	     52.32775564	      0.91329163	    -13.60008153	    -19.38231758	      0.00000000	     19.07443247	      8.42325858	     -2.87444976	     23.02798749	      0.40191420	      6.49420890	     -2.42440749	      0.00000000
     14.27333333	      3.86866195	      7.26148728	      0.93128629	      2.29074418	      1.03276389	      0.99803158	    -13.35389588	     -9.92654649	     -5.06223280	     54.60133739	      0.95297311	    -12.29892771	    -20.88023150	      0.00000000	     18.86388232	      9.24974020	     -2.27269204	     24.41099128	      0.42605217	      5.85309061	     -4.53646386	      0.00000000
     14.28000000	      3.93777378	      7.79055159	      1.26147736	      2.29019864	      1.02808644	      0.99715290	    -12.47369630	    -10.60760250	     -5.21306233	     56.82072249	      0.99170869	    -11.03911892	    -22.25700846	      0.00000000	     18.82221928	     10.19393866	     -1.44282435	     26.01688263	      0.45408026	      5.42960618	     -6.78830876	      0.00000000
     14.28666667	      4.37912598	      8.36167256	      1.46408564	      2.28954670	      1.02376497	      0.99639992	    -11.98550498	    -11.36327551	     -5.32126894	     58.87887993	      1.02763031	     -9.89760940	    -23.61184032	      0.00000000	     18.48318795	     11.07646731	     -1.03280914	     27.90354083	      0.48700866	      5.53639700	     -8.24939218	      0.00000000
     14.29333333	      3.96378164	      9.04125736	      2.08799072	      2.28869869	      1.01858957	      0.99485083	    -10.54752432	    -12.30582322	     -5.76117886	     61.05486163	      1.06560836	     -8.66301975	    -24.71689477	      0.00000000	     18.99998824	     12.47742701	      0.50084299	     29.74015119	      0.51906356	      5.37476099	    -11.30935429	      0.00000000
